<mxfile host="app.diagrams.net" agent="Mozilla/5.0 (X11; Linux x86_64; rv:128.0) Gecko/20100101 Firefox/128.0" version="26.0.11">
  <diagram name="第 1 页" id="aH6ZTaXwP5k0bfcdlkgT">
    <mxGraphModel dx="1234" dy="411" grid="1" gridSize="10" guides="1" tooltips="1" connect="1" arrows="1" fold="1" page="1" pageScale="1" pageWidth="827" pageHeight="1169" math="1" shadow="0">
      <root>
        <mxCell id="0" />
        <mxCell id="1" parent="0" />
        <mxCell id="OK1sKgkIxB2whGgdd0nA-53" value="" style="rounded=1;whiteSpace=wrap;html=1;fillColor=none;" parent="1" vertex="1">
          <mxGeometry x="130" y="190" width="780" height="310" as="geometry" />
        </mxCell>
        <mxCell id="OK1sKgkIxB2whGgdd0nA-96" value="" style="rounded=1;whiteSpace=wrap;html=1;fillColor=none;" parent="1" vertex="1">
          <mxGeometry x="132" y="585" width="780" height="310" as="geometry" />
        </mxCell>
        <mxCell id="OK1sKgkIxB2whGgdd0nA-46" value="" style="rounded=0;whiteSpace=wrap;html=1;fillColor=none;" parent="1" vertex="1">
          <mxGeometry x="490.5" y="441" width="90" height="40" as="geometry" />
        </mxCell>
        <mxCell id="OK1sKgkIxB2whGgdd0nA-2" style="edgeStyle=orthogonalEdgeStyle;rounded=0;orthogonalLoop=1;jettySize=auto;html=1;exitX=1;exitY=0.5;exitDx=0;exitDy=0;entryX=0;entryY=0.5;entryDx=0;entryDy=0;" parent="1" source="OK1sKgkIxB2whGgdd0nA-4" target="OK1sKgkIxB2whGgdd0nA-7" edge="1">
          <mxGeometry relative="1" as="geometry" />
        </mxCell>
        <mxCell id="OK1sKgkIxB2whGgdd0nA-3" style="edgeStyle=orthogonalEdgeStyle;rounded=0;orthogonalLoop=1;jettySize=auto;html=1;exitX=0.5;exitY=1;exitDx=0;exitDy=0;entryX=0.5;entryY=0;entryDx=0;entryDy=0;" parent="1" source="OK1sKgkIxB2whGgdd0nA-4" target="OK1sKgkIxB2whGgdd0nA-17" edge="1">
          <mxGeometry relative="1" as="geometry" />
        </mxCell>
        <mxCell id="OK1sKgkIxB2whGgdd0nA-4" value="&lt;font style=&quot;font-size: 20px;&quot;&gt;FWD 1&lt;/font&gt;" style="rounded=1;whiteSpace=wrap;html=1;fontFamily=Helvetica;" parent="1" vertex="1">
          <mxGeometry x="340" y="210" width="90" height="60" as="geometry" />
        </mxCell>
        <mxCell id="OK1sKgkIxB2whGgdd0nA-5" style="edgeStyle=orthogonalEdgeStyle;rounded=0;orthogonalLoop=1;jettySize=auto;html=1;exitX=1;exitY=0.5;exitDx=0;exitDy=0;entryX=0;entryY=0.5;entryDx=0;entryDy=0;" parent="1" source="OK1sKgkIxB2whGgdd0nA-7" target="OK1sKgkIxB2whGgdd0nA-9" edge="1">
          <mxGeometry relative="1" as="geometry" />
        </mxCell>
        <mxCell id="OK1sKgkIxB2whGgdd0nA-6" style="edgeStyle=orthogonalEdgeStyle;rounded=0;orthogonalLoop=1;jettySize=auto;html=1;exitX=0.5;exitY=1;exitDx=0;exitDy=0;" parent="1" source="OK1sKgkIxB2whGgdd0nA-7" target="OK1sKgkIxB2whGgdd0nA-15" edge="1">
          <mxGeometry relative="1" as="geometry" />
        </mxCell>
        <mxCell id="OK1sKgkIxB2whGgdd0nA-7" value="&lt;font style=&quot;font-size: 20px;&quot;&gt;FWD 2&lt;/font&gt;" style="rounded=1;whiteSpace=wrap;html=1;fontFamily=Helvetica;" parent="1" vertex="1">
          <mxGeometry x="490" y="210" width="90" height="60" as="geometry" />
        </mxCell>
        <mxCell id="OK1sKgkIxB2whGgdd0nA-8" style="edgeStyle=orthogonalEdgeStyle;rounded=0;orthogonalLoop=1;jettySize=auto;html=1;entryX=0.5;entryY=0;entryDx=0;entryDy=0;" parent="1" source="OK1sKgkIxB2whGgdd0nA-9" target="OK1sKgkIxB2whGgdd0nA-12" edge="1">
          <mxGeometry relative="1" as="geometry" />
        </mxCell>
        <mxCell id="OK1sKgkIxB2whGgdd0nA-9" value="&lt;font style=&quot;font-size: 20px;&quot;&gt;FWD 3&lt;/font&gt;" style="rounded=1;whiteSpace=wrap;html=1;fontFamily=Helvetica;" parent="1" vertex="1">
          <mxGeometry x="640" y="210" width="90" height="60" as="geometry" />
        </mxCell>
        <mxCell id="OK1sKgkIxB2whGgdd0nA-10" style="edgeStyle=orthogonalEdgeStyle;rounded=0;orthogonalLoop=1;jettySize=auto;html=1;exitX=0;exitY=0.5;exitDx=0;exitDy=0;" parent="1" source="OK1sKgkIxB2whGgdd0nA-12" target="OK1sKgkIxB2whGgdd0nA-15" edge="1">
          <mxGeometry relative="1" as="geometry" />
        </mxCell>
        <mxCell id="OK1sKgkIxB2whGgdd0nA-12" value="&lt;font style=&quot;font-size: 20px;&quot;&gt;BWD 3&lt;/font&gt;" style="rounded=1;whiteSpace=wrap;html=1;fontFamily=Helvetica;" parent="1" vertex="1">
          <mxGeometry x="640" y="329" width="90" height="60" as="geometry" />
        </mxCell>
        <mxCell id="OK1sKgkIxB2whGgdd0nA-13" style="edgeStyle=orthogonalEdgeStyle;rounded=0;orthogonalLoop=1;jettySize=auto;html=1;exitX=0;exitY=0.5;exitDx=0;exitDy=0;" parent="1" source="OK1sKgkIxB2whGgdd0nA-15" target="OK1sKgkIxB2whGgdd0nA-17" edge="1">
          <mxGeometry relative="1" as="geometry" />
        </mxCell>
        <mxCell id="OK1sKgkIxB2whGgdd0nA-15" value="&lt;font style=&quot;font-size: 20px;&quot;&gt;BWD 2&lt;/font&gt;" style="rounded=1;whiteSpace=wrap;html=1;fontFamily=Helvetica;" parent="1" vertex="1">
          <mxGeometry x="490" y="329" width="90" height="60" as="geometry" />
        </mxCell>
        <mxCell id="OK1sKgkIxB2whGgdd0nA-17" value="&lt;font style=&quot;font-size: 20px;&quot;&gt;BWD 1&lt;/font&gt;" style="rounded=1;whiteSpace=wrap;html=1;fontFamily=Helvetica;" parent="1" vertex="1">
          <mxGeometry x="340" y="329" width="90" height="60" as="geometry" />
        </mxCell>
        <mxCell id="OK1sKgkIxB2whGgdd0nA-18" style="rounded=0;orthogonalLoop=1;jettySize=auto;html=1;exitX=0;exitY=0.5;exitDx=0;exitDy=0;entryX=1;entryY=0.5;entryDx=0;entryDy=0;" parent="1" source="OK1sKgkIxB2whGgdd0nA-19" target="OK1sKgkIxB2whGgdd0nA-12" edge="1">
          <mxGeometry relative="1" as="geometry" />
        </mxCell>
        <mxCell id="OK1sKgkIxB2whGgdd0nA-19" value="&lt;font style=&quot;font-size: 20px;&quot; face=&quot;Comic Sans MS&quot;&gt;&lt;br&gt;&lt;/font&gt;" style="rounded=1;whiteSpace=wrap;html=1;" parent="1" vertex="1">
          <mxGeometry x="810" y="269" width="70" height="60" as="geometry" />
        </mxCell>
        <mxCell id="OK1sKgkIxB2whGgdd0nA-20" value="" style="endArrow=classic;html=1;rounded=0;entryX=0;entryY=0.5;entryDx=0;entryDy=0;exitX=1;exitY=0.5;exitDx=0;exitDy=0;" parent="1" source="OK1sKgkIxB2whGgdd0nA-9" target="OK1sKgkIxB2whGgdd0nA-19" edge="1">
          <mxGeometry width="50" height="50" relative="1" as="geometry">
            <mxPoint x="720" y="390" as="sourcePoint" />
            <mxPoint x="770" y="340" as="targetPoint" />
          </mxGeometry>
        </mxCell>
        <mxCell id="OK1sKgkIxB2whGgdd0nA-22" value="&lt;font style=&quot;font-size: 20px;&quot; face=&quot;Comic Sans MS&quot;&gt;4, 7, 8&lt;/font&gt;" style="text;html=1;strokeColor=none;fillColor=none;align=center;verticalAlign=middle;whiteSpace=wrap;rounded=0;" parent="1" vertex="1">
          <mxGeometry x="782" y="229" width="110" height="40" as="geometry" />
        </mxCell>
        <mxCell id="OK1sKgkIxB2whGgdd0nA-23" value="&lt;font style=&quot;font-size: 18px;&quot; face=&quot;Helvetica&quot;&gt;Prediction&lt;/font&gt;&lt;font style=&quot;font-size: 18px;&quot;&gt;&lt;br&gt;&lt;/font&gt;" style="text;html=1;strokeColor=none;fillColor=none;align=center;verticalAlign=middle;whiteSpace=wrap;rounded=0;fontColor=#000000;fontFamily=Lucida Console;" parent="1" vertex="1">
          <mxGeometry x="792" y="214" width="90" height="20" as="geometry" />
        </mxCell>
        <mxCell id="OK1sKgkIxB2whGgdd0nA-24" value="&lt;font style=&quot;font-size: 20px;&quot; face=&quot;Comic Sans MS&quot;&gt;4, 1, 8&lt;/font&gt;" style="text;html=1;strokeColor=none;fillColor=none;align=center;verticalAlign=middle;whiteSpace=wrap;rounded=0;" parent="1" vertex="1">
          <mxGeometry x="784" y="351" width="105" height="40" as="geometry" />
        </mxCell>
        <mxCell id="OK1sKgkIxB2whGgdd0nA-25" value="" style="endArrow=classic;html=1;rounded=0;exitX=0.75;exitY=0;exitDx=0;exitDy=0;entryX=0.75;entryY=1;entryDx=0;entryDy=0;" parent="1" target="OK1sKgkIxB2whGgdd0nA-19" edge="1">
          <mxGeometry width="50" height="50" relative="1" as="geometry">
            <mxPoint x="862.75" y="349" as="sourcePoint" />
            <mxPoint x="790" y="299" as="targetPoint" />
          </mxGeometry>
        </mxCell>
        <mxCell id="OK1sKgkIxB2whGgdd0nA-26" value="&lt;font style=&quot;font-size: 18px;&quot;&gt;Label&lt;/font&gt;" style="text;html=1;strokeColor=none;fillColor=none;align=center;verticalAlign=middle;whiteSpace=wrap;rounded=0;fontColor=#000000;fontFamily=Helvetica;" parent="1" vertex="1">
          <mxGeometry x="797" y="391" width="80" height="20" as="geometry" />
        </mxCell>
        <mxCell id="OK1sKgkIxB2whGgdd0nA-37" value="&lt;font style=&quot;font-size: 18px;&quot; face=&quot;Helvetica&quot;&gt;Input&lt;/font&gt;" style="text;html=1;strokeColor=none;fillColor=none;align=center;verticalAlign=middle;whiteSpace=wrap;rounded=0;fontColor=#000000;fontFamily=Lucida Console;" parent="1" vertex="1">
          <mxGeometry x="181" y="280" width="60" height="20" as="geometry" />
        </mxCell>
        <mxCell id="OK1sKgkIxB2whGgdd0nA-38" value="" style="endArrow=classic;html=1;rounded=0;entryX=0;entryY=0.5;entryDx=0;entryDy=0;" parent="1" target="OK1sKgkIxB2whGgdd0nA-4" edge="1">
          <mxGeometry width="50" height="50" relative="1" as="geometry">
            <mxPoint x="290" y="240" as="sourcePoint" />
            <mxPoint x="320" y="130" as="targetPoint" />
          </mxGeometry>
        </mxCell>
        <mxCell id="OK1sKgkIxB2whGgdd0nA-41" value="$$\boldsymbol{\frac{\partial L}{\partial W^{[1]}&lt;br&gt;}}$$" style="text;html=1;strokeColor=none;fillColor=none;align=center;verticalAlign=middle;whiteSpace=wrap;rounded=0;" parent="1" vertex="1">
          <mxGeometry x="336" y="446" width="60" height="30" as="geometry" />
        </mxCell>
        <mxCell id="OK1sKgkIxB2whGgdd0nA-42" value="$$\boldsymbol{\frac{\partial L}{\partial b^{[1]}&lt;br&gt;}}$$" style="text;html=1;strokeColor=none;fillColor=none;align=center;verticalAlign=middle;whiteSpace=wrap;rounded=0;" parent="1" vertex="1">
          <mxGeometry x="381" y="446" width="60" height="30" as="geometry" />
        </mxCell>
        <mxCell id="OK1sKgkIxB2whGgdd0nA-43" value="" style="rounded=0;whiteSpace=wrap;html=1;fillColor=none;" parent="1" vertex="1">
          <mxGeometry x="339.5" y="440" width="90" height="40" as="geometry" />
        </mxCell>
        <mxCell id="OK1sKgkIxB2whGgdd0nA-44" value="$$\boldsymbol{\frac{\partial L}{\partial W^{[2]}&lt;br&gt;}}$$" style="text;html=1;strokeColor=none;fillColor=none;align=center;verticalAlign=middle;whiteSpace=wrap;rounded=0;" parent="1" vertex="1">
          <mxGeometry x="487" y="447" width="60" height="30" as="geometry" />
        </mxCell>
        <mxCell id="OK1sKgkIxB2whGgdd0nA-45" value="$$\boldsymbol{\frac{\partial L}{\partial b^{[2]}&lt;br&gt;}}$$" style="text;html=1;strokeColor=none;fillColor=none;align=center;verticalAlign=middle;whiteSpace=wrap;rounded=0;" parent="1" vertex="1">
          <mxGeometry x="532" y="447" width="60" height="30" as="geometry" />
        </mxCell>
        <mxCell id="OK1sKgkIxB2whGgdd0nA-47" value="" style="rounded=0;whiteSpace=wrap;html=1;fillColor=none;" parent="1" vertex="1">
          <mxGeometry x="640.5" y="442" width="90" height="40" as="geometry" />
        </mxCell>
        <mxCell id="OK1sKgkIxB2whGgdd0nA-48" value="$$\boldsymbol{\frac{\partial L}{\partial W^{[3]}&lt;br&gt;}}$$" style="text;html=1;strokeColor=none;fillColor=none;align=center;verticalAlign=middle;whiteSpace=wrap;rounded=0;" parent="1" vertex="1">
          <mxGeometry x="637" y="448" width="60" height="30" as="geometry" />
        </mxCell>
        <mxCell id="OK1sKgkIxB2whGgdd0nA-49" value="$$\boldsymbol{\frac{\partial L}{\partial b^{[3]}&lt;br&gt;}}$$" style="text;html=1;strokeColor=none;fillColor=none;align=center;verticalAlign=middle;whiteSpace=wrap;rounded=0;" parent="1" vertex="1">
          <mxGeometry x="682" y="448" width="60" height="30" as="geometry" />
        </mxCell>
        <mxCell id="OK1sKgkIxB2whGgdd0nA-50" value="" style="endArrow=classic;html=1;rounded=0;exitX=0.5;exitY=1;exitDx=0;exitDy=0;" parent="1" source="OK1sKgkIxB2whGgdd0nA-17" target="OK1sKgkIxB2whGgdd0nA-43" edge="1">
          <mxGeometry width="50" height="50" relative="1" as="geometry">
            <mxPoint x="230" y="480" as="sourcePoint" />
            <mxPoint x="280" y="430" as="targetPoint" />
          </mxGeometry>
        </mxCell>
        <mxCell id="OK1sKgkIxB2whGgdd0nA-51" value="" style="endArrow=classic;html=1;rounded=0;exitX=0.5;exitY=1;exitDx=0;exitDy=0;entryX=0.5;entryY=0;entryDx=0;entryDy=0;" parent="1" source="OK1sKgkIxB2whGgdd0nA-15" target="OK1sKgkIxB2whGgdd0nA-46" edge="1">
          <mxGeometry width="50" height="50" relative="1" as="geometry">
            <mxPoint x="580" y="640" as="sourcePoint" />
            <mxPoint x="630" y="590" as="targetPoint" />
          </mxGeometry>
        </mxCell>
        <mxCell id="OK1sKgkIxB2whGgdd0nA-52" value="" style="endArrow=classic;html=1;rounded=0;exitX=0.5;exitY=1;exitDx=0;exitDy=0;entryX=0.5;entryY=0;entryDx=0;entryDy=0;" parent="1" source="OK1sKgkIxB2whGgdd0nA-12" target="OK1sKgkIxB2whGgdd0nA-47" edge="1">
          <mxGeometry width="50" height="50" relative="1" as="geometry">
            <mxPoint x="710" y="640" as="sourcePoint" />
            <mxPoint x="760" y="590" as="targetPoint" />
          </mxGeometry>
        </mxCell>
        <mxCell id="OK1sKgkIxB2whGgdd0nA-54" value="" style="rounded=0;whiteSpace=wrap;html=1;fillColor=none;" parent="1" vertex="1">
          <mxGeometry x="492.5" y="836" width="90" height="40" as="geometry" />
        </mxCell>
        <mxCell id="OK1sKgkIxB2whGgdd0nA-55" style="edgeStyle=orthogonalEdgeStyle;rounded=0;orthogonalLoop=1;jettySize=auto;html=1;exitX=1;exitY=0.5;exitDx=0;exitDy=0;entryX=0;entryY=0.5;entryDx=0;entryDy=0;" parent="1" source="OK1sKgkIxB2whGgdd0nA-57" target="OK1sKgkIxB2whGgdd0nA-60" edge="1">
          <mxGeometry relative="1" as="geometry" />
        </mxCell>
        <mxCell id="OK1sKgkIxB2whGgdd0nA-56" style="edgeStyle=orthogonalEdgeStyle;rounded=0;orthogonalLoop=1;jettySize=auto;html=1;exitX=0.5;exitY=1;exitDx=0;exitDy=0;entryX=0.5;entryY=0;entryDx=0;entryDy=0;" parent="1" source="OK1sKgkIxB2whGgdd0nA-57" target="OK1sKgkIxB2whGgdd0nA-67" edge="1">
          <mxGeometry relative="1" as="geometry" />
        </mxCell>
        <mxCell id="OK1sKgkIxB2whGgdd0nA-57" value="&lt;font style=&quot;font-size: 20px;&quot;&gt;FWD 1&lt;/font&gt;" style="rounded=1;whiteSpace=wrap;html=1;fontFamily=Helvetica;" parent="1" vertex="1">
          <mxGeometry x="342" y="605" width="90" height="60" as="geometry" />
        </mxCell>
        <mxCell id="OK1sKgkIxB2whGgdd0nA-58" style="edgeStyle=orthogonalEdgeStyle;rounded=0;orthogonalLoop=1;jettySize=auto;html=1;exitX=1;exitY=0.5;exitDx=0;exitDy=0;entryX=0;entryY=0.5;entryDx=0;entryDy=0;" parent="1" source="OK1sKgkIxB2whGgdd0nA-60" target="OK1sKgkIxB2whGgdd0nA-62" edge="1">
          <mxGeometry relative="1" as="geometry" />
        </mxCell>
        <mxCell id="OK1sKgkIxB2whGgdd0nA-59" style="edgeStyle=orthogonalEdgeStyle;rounded=0;orthogonalLoop=1;jettySize=auto;html=1;exitX=0.5;exitY=1;exitDx=0;exitDy=0;" parent="1" source="OK1sKgkIxB2whGgdd0nA-60" target="OK1sKgkIxB2whGgdd0nA-66" edge="1">
          <mxGeometry relative="1" as="geometry" />
        </mxCell>
        <mxCell id="OK1sKgkIxB2whGgdd0nA-60" value="&lt;font style=&quot;font-size: 20px;&quot;&gt;FWD 2&lt;/font&gt;" style="rounded=1;whiteSpace=wrap;html=1;fontFamily=Helvetica;" parent="1" vertex="1">
          <mxGeometry x="492" y="605" width="90" height="60" as="geometry" />
        </mxCell>
        <mxCell id="OK1sKgkIxB2whGgdd0nA-61" style="edgeStyle=orthogonalEdgeStyle;rounded=0;orthogonalLoop=1;jettySize=auto;html=1;entryX=0.5;entryY=0;entryDx=0;entryDy=0;" parent="1" source="OK1sKgkIxB2whGgdd0nA-62" target="OK1sKgkIxB2whGgdd0nA-64" edge="1">
          <mxGeometry relative="1" as="geometry" />
        </mxCell>
        <mxCell id="OK1sKgkIxB2whGgdd0nA-62" value="&lt;font style=&quot;font-size: 20px;&quot;&gt;FWD 3&lt;/font&gt;" style="rounded=1;whiteSpace=wrap;html=1;fontFamily=Helvetica;" parent="1" vertex="1">
          <mxGeometry x="642" y="605" width="90" height="60" as="geometry" />
        </mxCell>
        <mxCell id="OK1sKgkIxB2whGgdd0nA-63" style="edgeStyle=orthogonalEdgeStyle;rounded=0;orthogonalLoop=1;jettySize=auto;html=1;exitX=0;exitY=0.5;exitDx=0;exitDy=0;" parent="1" source="OK1sKgkIxB2whGgdd0nA-64" target="OK1sKgkIxB2whGgdd0nA-66" edge="1">
          <mxGeometry relative="1" as="geometry" />
        </mxCell>
        <mxCell id="OK1sKgkIxB2whGgdd0nA-64" value="&lt;font style=&quot;font-size: 20px;&quot;&gt;BWD 3&lt;/font&gt;" style="rounded=1;whiteSpace=wrap;html=1;fontFamily=Helvetica;" parent="1" vertex="1">
          <mxGeometry x="642" y="724" width="90" height="60" as="geometry" />
        </mxCell>
        <mxCell id="OK1sKgkIxB2whGgdd0nA-65" style="edgeStyle=orthogonalEdgeStyle;rounded=0;orthogonalLoop=1;jettySize=auto;html=1;exitX=0;exitY=0.5;exitDx=0;exitDy=0;" parent="1" source="OK1sKgkIxB2whGgdd0nA-66" target="OK1sKgkIxB2whGgdd0nA-67" edge="1">
          <mxGeometry relative="1" as="geometry" />
        </mxCell>
        <mxCell id="OK1sKgkIxB2whGgdd0nA-66" value="&lt;font style=&quot;font-size: 20px;&quot;&gt;BWD 2&lt;/font&gt;" style="rounded=1;whiteSpace=wrap;html=1;fontFamily=Helvetica;" parent="1" vertex="1">
          <mxGeometry x="492" y="724" width="90" height="60" as="geometry" />
        </mxCell>
        <mxCell id="OK1sKgkIxB2whGgdd0nA-67" value="&lt;font style=&quot;font-size: 20px;&quot;&gt;BWD 1&lt;/font&gt;" style="rounded=1;whiteSpace=wrap;html=1;fontFamily=Helvetica;" parent="1" vertex="1">
          <mxGeometry x="342" y="724" width="90" height="60" as="geometry" />
        </mxCell>
        <mxCell id="OK1sKgkIxB2whGgdd0nA-68" style="rounded=0;orthogonalLoop=1;jettySize=auto;html=1;exitX=0;exitY=0.5;exitDx=0;exitDy=0;entryX=1;entryY=0.5;entryDx=0;entryDy=0;" parent="1" source="OK1sKgkIxB2whGgdd0nA-69" target="OK1sKgkIxB2whGgdd0nA-64" edge="1">
          <mxGeometry relative="1" as="geometry" />
        </mxCell>
        <mxCell id="OK1sKgkIxB2whGgdd0nA-69" value="&lt;font style=&quot;font-size: 20px;&quot; face=&quot;Comic Sans MS&quot;&gt;&lt;br&gt;&lt;/font&gt;" style="rounded=1;whiteSpace=wrap;html=1;" parent="1" vertex="1">
          <mxGeometry x="812" y="661" width="70" height="60" as="geometry" />
        </mxCell>
        <mxCell id="OK1sKgkIxB2whGgdd0nA-70" value="" style="endArrow=classic;html=1;rounded=0;entryX=0;entryY=0.5;entryDx=0;entryDy=0;exitX=1;exitY=0.5;exitDx=0;exitDy=0;" parent="1" source="OK1sKgkIxB2whGgdd0nA-62" target="OK1sKgkIxB2whGgdd0nA-69" edge="1">
          <mxGeometry width="50" height="50" relative="1" as="geometry">
            <mxPoint x="722" y="785" as="sourcePoint" />
            <mxPoint x="772" y="735" as="targetPoint" />
          </mxGeometry>
        </mxCell>
        <mxCell id="OK1sKgkIxB2whGgdd0nA-71" value="&lt;font style=&quot;font-size: 20px;&quot; face=&quot;Comic Sans MS&quot;&gt;1, 6, 2&lt;/font&gt;" style="text;html=1;strokeColor=none;fillColor=none;align=center;verticalAlign=middle;whiteSpace=wrap;rounded=0;" parent="1" vertex="1">
          <mxGeometry x="782" y="621" width="113" height="40" as="geometry" />
        </mxCell>
        <mxCell id="OK1sKgkIxB2whGgdd0nA-72" value="&lt;font style=&quot;font-size: 18px;&quot; face=&quot;Helvetica&quot;&gt;Prediction&lt;/font&gt;&lt;font style=&quot;font-size: 18px;&quot;&gt;&lt;br&gt;&lt;/font&gt;" style="text;html=1;strokeColor=none;fillColor=none;align=center;verticalAlign=middle;whiteSpace=wrap;rounded=0;fontColor=#000000;fontFamily=Lucida Console;" parent="1" vertex="1">
          <mxGeometry x="789" y="601" width="90" height="20" as="geometry" />
        </mxCell>
        <mxCell id="OK1sKgkIxB2whGgdd0nA-73" value="&lt;font style=&quot;font-size: 20px;&quot; face=&quot;Comic Sans MS&quot;&gt;7, 6, 2&lt;/font&gt;" style="text;html=1;strokeColor=none;fillColor=none;align=center;verticalAlign=middle;whiteSpace=wrap;rounded=0;" parent="1" vertex="1">
          <mxGeometry x="786" y="741" width="105" height="40" as="geometry" />
        </mxCell>
        <mxCell id="OK1sKgkIxB2whGgdd0nA-74" value="" style="endArrow=classic;html=1;rounded=0;exitX=0.75;exitY=0;exitDx=0;exitDy=0;entryX=0.75;entryY=1;entryDx=0;entryDy=0;" parent="1" source="OK1sKgkIxB2whGgdd0nA-73" target="OK1sKgkIxB2whGgdd0nA-69" edge="1">
          <mxGeometry width="50" height="50" relative="1" as="geometry">
            <mxPoint x="742" y="741" as="sourcePoint" />
            <mxPoint x="792" y="691" as="targetPoint" />
          </mxGeometry>
        </mxCell>
        <mxCell id="OK1sKgkIxB2whGgdd0nA-75" value="&lt;font style=&quot;font-size: 18px;&quot;&gt;Label&lt;/font&gt;" style="text;html=1;strokeColor=none;fillColor=none;align=center;verticalAlign=middle;whiteSpace=wrap;rounded=0;fontColor=#000000;fontFamily=Helvetica;" parent="1" vertex="1">
          <mxGeometry x="778.5" y="781" width="120" height="20" as="geometry" />
        </mxCell>
        <mxCell id="OK1sKgkIxB2whGgdd0nA-83" value="&lt;font style=&quot;font-size: 18px;&quot; face=&quot;Helvetica&quot;&gt;Input&lt;/font&gt;" style="text;html=1;strokeColor=none;fillColor=none;align=center;verticalAlign=middle;whiteSpace=wrap;rounded=0;fontColor=#000000;fontFamily=Lucida Console;" parent="1" vertex="1">
          <mxGeometry x="172" y="680" width="90" height="20" as="geometry" />
        </mxCell>
        <mxCell id="OK1sKgkIxB2whGgdd0nA-84" value="" style="endArrow=classic;html=1;rounded=0;entryX=0;entryY=0.5;entryDx=0;entryDy=0;" parent="1" target="OK1sKgkIxB2whGgdd0nA-57" edge="1">
          <mxGeometry width="50" height="50" relative="1" as="geometry">
            <mxPoint x="292" y="635" as="sourcePoint" />
            <mxPoint x="322" y="525" as="targetPoint" />
          </mxGeometry>
        </mxCell>
        <mxCell id="OK1sKgkIxB2whGgdd0nA-85" value="$$\boldsymbol{\frac{\partial L}{\partial W^{[1]}&lt;br&gt;}}$$" style="text;html=1;strokeColor=none;fillColor=none;align=center;verticalAlign=middle;whiteSpace=wrap;rounded=0;" parent="1" vertex="1">
          <mxGeometry x="338" y="841" width="60" height="30" as="geometry" />
        </mxCell>
        <mxCell id="OK1sKgkIxB2whGgdd0nA-86" value="$$\boldsymbol{\frac{\partial L}{\partial b^{[1]}&lt;br&gt;}}$$" style="text;html=1;strokeColor=none;fillColor=none;align=center;verticalAlign=middle;whiteSpace=wrap;rounded=0;" parent="1" vertex="1">
          <mxGeometry x="383" y="841" width="60" height="30" as="geometry" />
        </mxCell>
        <mxCell id="OK1sKgkIxB2whGgdd0nA-87" value="" style="rounded=0;whiteSpace=wrap;html=1;fillColor=none;" parent="1" vertex="1">
          <mxGeometry x="341.5" y="835" width="90" height="40" as="geometry" />
        </mxCell>
        <mxCell id="OK1sKgkIxB2whGgdd0nA-88" value="$$\boldsymbol{\frac{\partial L}{\partial W^{[2]}&lt;br&gt;}}$$" style="text;html=1;strokeColor=none;fillColor=none;align=center;verticalAlign=middle;whiteSpace=wrap;rounded=0;" parent="1" vertex="1">
          <mxGeometry x="489" y="842" width="60" height="30" as="geometry" />
        </mxCell>
        <mxCell id="OK1sKgkIxB2whGgdd0nA-89" value="$$\boldsymbol{\frac{\partial L}{\partial b^{[2]}&lt;br&gt;}}$$" style="text;html=1;strokeColor=none;fillColor=none;align=center;verticalAlign=middle;whiteSpace=wrap;rounded=0;" parent="1" vertex="1">
          <mxGeometry x="534" y="842" width="60" height="30" as="geometry" />
        </mxCell>
        <mxCell id="OK1sKgkIxB2whGgdd0nA-90" value="" style="rounded=0;whiteSpace=wrap;html=1;fillColor=none;" parent="1" vertex="1">
          <mxGeometry x="642.5" y="837" width="90" height="40" as="geometry" />
        </mxCell>
        <mxCell id="OK1sKgkIxB2whGgdd0nA-91" value="$$\boldsymbol{\frac{\partial L}{\partial W^{[3]}&lt;br&gt;}}$$" style="text;html=1;strokeColor=none;fillColor=none;align=center;verticalAlign=middle;whiteSpace=wrap;rounded=0;" parent="1" vertex="1">
          <mxGeometry x="639" y="843" width="60" height="30" as="geometry" />
        </mxCell>
        <mxCell id="OK1sKgkIxB2whGgdd0nA-92" value="$$\boldsymbol{\frac{\partial L}{\partial b^{[3]}&lt;br&gt;}}$$" style="text;html=1;strokeColor=none;fillColor=none;align=center;verticalAlign=middle;whiteSpace=wrap;rounded=0;" parent="1" vertex="1">
          <mxGeometry x="684" y="843" width="60" height="30" as="geometry" />
        </mxCell>
        <mxCell id="OK1sKgkIxB2whGgdd0nA-93" value="" style="endArrow=classic;html=1;rounded=0;exitX=0.5;exitY=1;exitDx=0;exitDy=0;" parent="1" source="OK1sKgkIxB2whGgdd0nA-67" target="OK1sKgkIxB2whGgdd0nA-87" edge="1">
          <mxGeometry width="50" height="50" relative="1" as="geometry">
            <mxPoint x="232" y="875" as="sourcePoint" />
            <mxPoint x="282" y="825" as="targetPoint" />
          </mxGeometry>
        </mxCell>
        <mxCell id="OK1sKgkIxB2whGgdd0nA-94" value="" style="endArrow=classic;html=1;rounded=0;exitX=0.5;exitY=1;exitDx=0;exitDy=0;entryX=0.5;entryY=0;entryDx=0;entryDy=0;" parent="1" source="OK1sKgkIxB2whGgdd0nA-66" target="OK1sKgkIxB2whGgdd0nA-54" edge="1">
          <mxGeometry width="50" height="50" relative="1" as="geometry">
            <mxPoint x="582" y="1035" as="sourcePoint" />
            <mxPoint x="632" y="985" as="targetPoint" />
          </mxGeometry>
        </mxCell>
        <mxCell id="OK1sKgkIxB2whGgdd0nA-95" value="" style="endArrow=classic;html=1;rounded=0;exitX=0.5;exitY=1;exitDx=0;exitDy=0;entryX=0.5;entryY=0;entryDx=0;entryDy=0;" parent="1" source="OK1sKgkIxB2whGgdd0nA-64" target="OK1sKgkIxB2whGgdd0nA-90" edge="1">
          <mxGeometry width="50" height="50" relative="1" as="geometry">
            <mxPoint x="712" y="1035" as="sourcePoint" />
            <mxPoint x="762" y="985" as="targetPoint" />
          </mxGeometry>
        </mxCell>
        <mxCell id="OK1sKgkIxB2whGgdd0nA-102" value="" style="group" parent="1" vertex="1" connectable="0">
          <mxGeometry x="147" y="570" width="140" height="90" as="geometry" />
        </mxCell>
        <mxCell id="OK1sKgkIxB2whGgdd0nA-103" value="7" style="rounded=0;whiteSpace=wrap;html=1;fontSize=20;fontFamily=Comic Sans MS;fillColor=#000000;fontColor=#ffffff;" parent="OK1sKgkIxB2whGgdd0nA-102" vertex="1">
          <mxGeometry y="50" width="40" height="40" as="geometry" />
        </mxCell>
        <mxCell id="OK1sKgkIxB2whGgdd0nA-104" value="6" style="rounded=0;whiteSpace=wrap;html=1;fontSize=20;fontFamily=Comic Sans MS;fillColor=#000000;fontColor=#ffffff;" parent="OK1sKgkIxB2whGgdd0nA-102" vertex="1">
          <mxGeometry x="50" y="50" width="40" height="40" as="geometry" />
        </mxCell>
        <mxCell id="OK1sKgkIxB2whGgdd0nA-105" value="2" style="rounded=0;whiteSpace=wrap;html=1;fontSize=20;fontFamily=Comic Sans MS;fillColor=#000000;fontColor=#ffffff;" parent="OK1sKgkIxB2whGgdd0nA-102" vertex="1">
          <mxGeometry x="100" y="50" width="40" height="40" as="geometry" />
        </mxCell>
        <mxCell id="OK1sKgkIxB2whGgdd0nA-107" value="4" style="rounded=0;whiteSpace=wrap;html=1;fontSize=20;fontFamily=Comic Sans MS;fillColor=#000000;fontColor=#ffffff;" parent="1" vertex="1">
          <mxGeometry x="141" y="220" width="40" height="40" as="geometry" />
        </mxCell>
        <mxCell id="OK1sKgkIxB2whGgdd0nA-108" value="1" style="rounded=0;whiteSpace=wrap;html=1;fontSize=20;fontFamily=Comic Sans MS;fillColor=#000000;fontColor=#ffffff;" parent="1" vertex="1">
          <mxGeometry x="191" y="220" width="40" height="40" as="geometry" />
        </mxCell>
        <mxCell id="OK1sKgkIxB2whGgdd0nA-109" value="8" style="rounded=0;whiteSpace=wrap;html=1;fontSize=20;fontFamily=Comic Sans MS;fillColor=#000000;fontColor=#ffffff;" parent="1" vertex="1">
          <mxGeometry x="241" y="220" width="40" height="40" as="geometry" />
        </mxCell>
        <mxCell id="OK1sKgkIxB2whGgdd0nA-112" value="&lt;font color=&quot;#0066cc&quot;&gt;&lt;b&gt;Different data for different GPU&lt;br&gt;&lt;/b&gt;&lt;/font&gt;" style="text;html=1;strokeColor=none;fillColor=none;align=center;verticalAlign=middle;whiteSpace=wrap;rounded=0;fontFamily=Comic Sans MS;fontColor=#6c8ebf;fontSize=20;" parent="1" vertex="1">
          <mxGeometry x="232" y="514" width="168" height="50" as="geometry" />
        </mxCell>
        <mxCell id="OK1sKgkIxB2whGgdd0nA-113" value="" style="endArrow=classic;html=1;rounded=0;exitX=0.5;exitY=0;exitDx=0;exitDy=0;strokeWidth=2;dashed=1;strokeColor=#0066CC;" parent="1" source="OK1sKgkIxB2whGgdd0nA-112" target="OK1sKgkIxB2whGgdd0nA-109" edge="1">
          <mxGeometry width="50" height="50" relative="1" as="geometry">
            <mxPoint x="120" y="630" as="sourcePoint" />
            <mxPoint x="170" y="580" as="targetPoint" />
          </mxGeometry>
        </mxCell>
        <mxCell id="OK1sKgkIxB2whGgdd0nA-114" value="" style="endArrow=classic;html=1;rounded=0;entryX=0.5;entryY=0;entryDx=0;entryDy=0;exitX=0.5;exitY=1;exitDx=0;exitDy=0;strokeWidth=2;dashed=1;strokeColor=#0066CC;" parent="1" source="OK1sKgkIxB2whGgdd0nA-112" target="OK1sKgkIxB2whGgdd0nA-105" edge="1">
          <mxGeometry width="50" height="50" relative="1" as="geometry">
            <mxPoint x="271" y="564" as="sourcePoint" />
            <mxPoint x="208" y="310" as="targetPoint" />
          </mxGeometry>
        </mxCell>
        <mxCell id="OK1sKgkIxB2whGgdd0nA-115" value="&lt;font color=&quot;#0066cc&quot; face=&quot;Helvetica&quot;&gt;&lt;b&gt;Copy model weight to different GPUs&lt;br&gt;&lt;/b&gt;&lt;/font&gt;" style="text;html=1;strokeColor=none;fillColor=none;align=center;verticalAlign=middle;whiteSpace=wrap;rounded=0;fontFamily=Comic Sans MS;fontColor=#6c8ebf;fontSize=20;" parent="1" vertex="1">
          <mxGeometry x="660" y="514" width="259" height="50" as="geometry" />
        </mxCell>
        <mxCell id="OK1sKgkIxB2whGgdd0nA-116" value="" style="endArrow=classic;html=1;rounded=0;exitX=0.5;exitY=0;exitDx=0;exitDy=0;strokeWidth=2;dashed=1;strokeColor=#0066CC;entryX=0.75;entryY=1;entryDx=0;entryDy=0;" parent="1" source="OK1sKgkIxB2whGgdd0nA-115" target="OK1sKgkIxB2whGgdd0nA-12" edge="1">
          <mxGeometry width="50" height="50" relative="1" as="geometry">
            <mxPoint x="294" y="524" as="sourcePoint" />
            <mxPoint x="273" y="270" as="targetPoint" />
          </mxGeometry>
        </mxCell>
        <mxCell id="OK1sKgkIxB2whGgdd0nA-117" value="" style="endArrow=classic;html=1;rounded=0;exitX=0.5;exitY=1;exitDx=0;exitDy=0;strokeWidth=2;dashed=1;strokeColor=#0066CC;entryX=0.75;entryY=0;entryDx=0;entryDy=0;" parent="1" source="OK1sKgkIxB2whGgdd0nA-115" target="OK1sKgkIxB2whGgdd0nA-62" edge="1">
          <mxGeometry width="50" height="50" relative="1" as="geometry">
            <mxPoint x="776.5" y="564" as="sourcePoint" />
            <mxPoint x="705" y="399" as="targetPoint" />
          </mxGeometry>
        </mxCell>
        <mxCell id="OK1sKgkIxB2whGgdd0nA-118" style="edgeStyle=orthogonalEdgeStyle;rounded=0;orthogonalLoop=1;jettySize=auto;html=1;exitX=0.5;exitY=1;exitDx=0;exitDy=0;" parent="1" source="OK1sKgkIxB2whGgdd0nA-26" target="OK1sKgkIxB2whGgdd0nA-26" edge="1">
          <mxGeometry relative="1" as="geometry" />
        </mxCell>
        <mxCell id="OK1sKgkIxB2whGgdd0nA-119" value="$$L$$" style="text;html=1;strokeColor=none;fillColor=none;align=center;verticalAlign=middle;whiteSpace=wrap;rounded=0;fontSize=18;" parent="1" vertex="1">
          <mxGeometry x="824" y="283" width="43" height="30" as="geometry" />
        </mxCell>
        <mxCell id="OK1sKgkIxB2whGgdd0nA-120" value="$$L$$" style="text;html=1;strokeColor=none;fillColor=none;align=center;verticalAlign=middle;whiteSpace=wrap;rounded=0;fontSize=18;" parent="1" vertex="1">
          <mxGeometry x="825.5" y="676" width="43" height="30" as="geometry" />
        </mxCell>
        <mxCell id="OK1sKgkIxB2whGgdd0nA-121" value="&lt;font style=&quot;font-size: 32px;&quot;&gt;GPU 0&lt;/font&gt;" style="text;html=1;strokeColor=none;fillColor=none;align=center;verticalAlign=middle;whiteSpace=wrap;rounded=0;fontStyle=1" parent="1" vertex="1">
          <mxGeometry x="136" y="448" width="120" height="30" as="geometry" />
        </mxCell>
        <mxCell id="OK1sKgkIxB2whGgdd0nA-122" value="&lt;font style=&quot;font-size: 32px;&quot;&gt;GPU 1&lt;/font&gt;" style="text;html=1;strokeColor=none;fillColor=none;align=center;verticalAlign=middle;whiteSpace=wrap;rounded=0;fontStyle=1" parent="1" vertex="1">
          <mxGeometry x="138" y="847" width="120" height="30" as="geometry" />
        </mxCell>
      </root>
    </mxGraphModel>
  </diagram>
</mxfile>
